{"title":"BBC Proms 2011_6 Stravinsky's Rite of Spring [MP4]","uid":6569796,"size":2087463618,"categoryP":"video","categoryS":"music_videos","magnet":"?xt=urn:btih:f381b485bbcd3c536f9bfaa5ce27c4ffc31bff9c&amp;dn=BBC+Proms+2011_6+Stravinsky%5C%27s+Rite+of+Spring+%5BMP4%5D&amp;tr=udp%3A%2F%2Ftracker.openbittorrent.com%3A80&amp;tr=udp%3A%2F%2Fopen.demonii.com%3A1337&amp;tr=udp%3A%2F%2Ftracker.coppersurfer.tk%3A6969&amp;tr=udp%3A%2F%2Fexodus.desync.com%3A6969","seeders":1,"leechers":0,"uploader":"Hathor","files":3,"time":1311889210,"description":"BBC Proms 2011, Number 6 Stravinsky's Rite of Spring\nThanks to the BBC :-)\n\nWeber:\nOberon - overture (9 mins)\n\nBrahms:\nConcerto in A minor for Violin and Cello (32 mins)\nRenaud CapuÃƒÂ§on: violin\nGautier CapuÃƒÂ§on: cello\nEncore - Halvorsen's Pasacaglia\n(Based on last movement of Handel's Harpsichord Suite in G minor)\n\nStravinsky:\nThe Rite of Spring (33 mins)\n\nOrchestre Philharmonique de Radio France\nMyung-Whun Chung conductor\n\nRuntime: 1:40\nFormat: MP4 720p\n\nStravinsky's Rite of Spring.mp4\nFormat                           : MPEG-4\nFormat profile                   : Base Media\nCodec ID                         : isom\nFile size                        : 1.94 GiB\nDuration                         : 1h 40mn\nOverall bit rate                 : 2 770 Kbps\nWriting application              : Lavf52.93.0\n\nVideo\nID                               : 1\nFormat                           : AVC\nFormat/Info                      : Advanced Video Codec\nFormat profile                   : &lt;a class=&quot;__cf_email__&quot; href=&quot;/cdn-cgi/l/email-protection&quot; data-cfemail=&quot;4a02232d220a067e647b&quot;&gt;[email&amp;#160;protected]&lt;/a&gt;&lt;script cf-hash='f9e31' type=&quot;text/javascript&quot;&gt;\n/* &lt;![CDATA[ */!function(){try{var t=&quot;currentScript&quot;in document?document.currentScript:function(){for(var t=document.getElementsByTagName(&quot;script&quot;),e=t.length;e--;)if(t[e].getAttribute(&quot;cf-hash&quot;))return t[e]}();if(t&amp;&amp;t.previousSibling){var e,r,n,i,c=t.previousSibling,a=c.getAttribute(&quot;data-cfemail&quot;);if(a){for(e=&quot;&quot;,r=parseInt(a.substr(0,2),16),n=2;a.length-n;n+=2)i=parseInt(a.substr(n,2),16)^r,e+=String.fromCharCode(i);e=document.createTextNode(e),c.parentNode.replaceChild(e,c)}}}catch(u){}}();/* ]]&gt; */&lt;/script&gt;\nFormat settings, CABAC           : Yes\nFormat settings, ReFrames        : 6 frames\nCodec ID                         : avc1\nCodec ID/Info                    : Advanced Video Coding\nDuration                         : 1h 40mn\nBit rate mode                    : Variable\nBit rate                         : 2 670 Kbps\nMaximum bit rate                 : 3 500 Kbps\nWidth                            : 1 280 pixels\nHeight                           : 720 pixels\nDisplay aspect ratio             : 16:9\nFrame rate mode                  : Constant\nFrame rate                       : 25.000 fps\nStandard                         : PAL\nColor space                      : YUV\nChroma subsampling               : 4:2:0\nBit depth                        : 8 bits\nScan type                        : Progressive\nBits/(Pixel*Frame)               : 0.116\nStream size                      : 1.87 GiB (96%)\n\nAudio\nID                               : 2\nFormat                           : AAC\nFormat/Info                      : Advanced Audio Codec\nFormat profile                   : HE-AAC / LC\nCodec ID                         : 40\nDuration                         : 1h 40mn\nBit rate mode                    : Variable\nBit rate                         : 96.0 Kbps\nChannel(s)                       : 2 channels\nChannel positions                : Front: L R\nSampling rate                    : 48.0 KHz / 24.0 KHz\nCompression mode                 : Lossy\nStream size                      : 68.1 MiB (3%)\n","torrent":{"xt":"urn:btih:f381b485bbcd3c536f9bfaa5ce27c4ffc31bff9c","amp;dn":"BBC+Proms+2011_6+Stravinsky%5C%27s+Rite+of+Spring+%5BMP4%5D","amp;tr":["udp%3A%2F%2Ftracker.openbittorrent.com%3A80","udp%3A%2F%2Fopen.demonii.com%3A1337","udp%3A%2F%2Ftracker.coppersurfer.tk%3A6969","udp%3A%2F%2Fexodus.desync.com%3A6969"],"infoHash":"f381b485bbcd3c536f9bfaa5ce27c4ffc31bff9c","infoHashBuffer":{"type":"Buffer","data":[243,129,180,133,187,205,60,83,111,155,250,165,206,39,196,255,195,27,255,156]},"announce":[],"urlList":[]}}